# xmcd
#
# Track frame offsets: 
#        150
#        16702
#        33545
#        53235
#        72133
#        89889
#        103853
#        123952
#        147729
#        163628
#        186049
#
# Disc length: 2825 seconds
#
# Revision: 4
# Processed by: cddbd v1.5.2PL0 Copyright (c) Steve Scherf et al.
# Submitted via: ExactAudioCopy v1.0b4
#
DISCID=9b0b070b
DTITLE=Peter Green - Blues Don't Change
DYEAR=2001
DGENRE=Blues Rock
TTITLE0=I Believe My Time Ain't Long
TTITLE1=Take Out Some Insurance
TTITLE2=When It All Comes Down
TTITLE3=Honey Bee
TTITLE4=Little Red Rooster
TTITLE5=Don't Start Me Talking
TTITLE6=Nobody Knows You When You're Down And Out
TTITLE7=Help Me Through The Day
TTITLE8=Honest I Do
TTITLE9=Blues Don't Change
TTITLE10=Crawlin' King Snake
EXTD=YEAR: 2001
EXTT0=
EXTT1=
EXTT2=
EXTT3=
EXTT4=
EXTT5=
EXTT6=
EXTT7=
EXTT8=
EXTT9=
EXTT10=
PLAYORDER=
